<?xml version="1.0" encoding="UTF-8" standalone="no"?><!DOCTYPE svg PUBLIC "-//W3C//DTD SVG 1.1//EN" "http://www.w3.org/Graphics/SVG/1.1/DTD/svg11.dtd"><svg width="100%" height="100%" viewBox="0 0 334 434" version="1.1" xmlns="http://www.w3.org/2000/svg" xmlns:xlink="http://www.w3.org/1999/xlink" xml:space="preserve" xmlns:serif="http://www.serif.com/" style="fill-rule:evenodd;clip-rule:evenodd;"><path d="M16.988,0l82.193,4.364l226.731,84.821c-0,0 -39.457,11.142 -67.799,34.895c-28.343,23.747 -63.691,47.5 -87.606,60.099c-23.913,12.599 -116.232,38.772 -129.272,42.648c-13.04,3.883 -31.362,3.883 -31.362,3.883c-0,-0 -3.743,-82.883 -2.51,-122.142c1.234,-39.259 9.625,-108.568 9.625,-108.568Z" style="fill:#ffe886;"/><g transform="matrix(145.833,0,0,145.833,26.73,159.828)"><path d="M0.276,-0c-0.006,-0 -0.012,-0.002 -0.016,-0.006c-0.004,-0.005 -0.007,-0.01 -0.007,-0.017l0,-0.56l-0.166,0.128c-0.006,0.004 -0.011,0.006 -0.017,0.005c-0.006,-0.001 -0.011,-0.004 -0.015,-0.009l-0.026,-0.033c-0.004,-0.006 -0.005,-0.012 -0.004,-0.018c0,-0.006 0.004,-0.011 0.009,-0.015l0.218,-0.168c0.005,-0.003 0.009,-0.005 0.013,-0.006c0.004,-0.001 0.008,-0.001 0.013,-0.001l0.051,0c0.006,0 0.012,0.002 0.016,0.006c0.004,0.005 0.006,0.01 0.007,0.017l-0.001,0.654c0,0.007 -0.002,0.012 -0.006,0.017c-0.004,0.004 -0.01,0.006 -0.016,0.006l-0.053,0Z" style="fill-rule:nonzero;"/></g><g transform="matrix(145.833,0,0,145.833,89.1466,159.828)"><path d="M0.317,0.01c-0.046,0 -0.085,-0.007 -0.117,-0.022c-0.031,-0.014 -0.057,-0.034 -0.077,-0.059c-0.02,-0.025 -0.034,-0.054 -0.043,-0.087c-0.01,-0.033 -0.015,-0.068 -0.017,-0.104c0,-0.018 -0,-0.037 -0,-0.057c-0.001,-0.02 -0.001,-0.041 -0,-0.061c-0,-0.02 0,-0.04 0,-0.058c0.002,-0.037 0.007,-0.072 0.016,-0.105c0.01,-0.033 0.025,-0.062 0.045,-0.087c0.02,-0.025 0.045,-0.044 0.077,-0.059c0.032,-0.014 0.071,-0.021 0.116,-0.021c0.046,0 0.085,0.007 0.117,0.021c0.031,0.015 0.057,0.034 0.077,0.059c0.02,0.025 0.035,0.054 0.044,0.087c0.01,0.033 0.015,0.068 0.016,0.105c0.001,0.018 0.001,0.038 0.002,0.058c-0,0.02 -0,0.041 -0,0.061c-0.001,0.02 -0.001,0.039 -0.002,0.057c-0.001,0.036 -0.006,0.071 -0.016,0.104c-0.009,0.033 -0.024,0.062 -0.043,0.087c-0.02,0.025 -0.046,0.045 -0.078,0.059c-0.031,0.015 -0.07,0.022 -0.117,0.022Zm0,-0.085c0.052,-0 0.091,-0.018 0.115,-0.052c0.025,-0.034 0.038,-0.081 0.039,-0.14c0.001,-0.02 0.002,-0.038 0.002,-0.057c-0,-0.018 -0,-0.036 -0,-0.055c-0,-0.018 -0.001,-0.036 -0.002,-0.054c-0.001,-0.058 -0.014,-0.105 -0.039,-0.14c-0.024,-0.034 -0.063,-0.052 -0.115,-0.052c-0.051,0 -0.089,0.018 -0.114,0.052c-0.025,0.035 -0.038,0.082 -0.04,0.14c0,0.018 0,0.036 -0,0.054c-0.001,0.019 -0.001,0.037 -0,0.055c0,0.019 0,0.037 0,0.057c0.002,0.059 0.015,0.106 0.04,0.14c0.025,0.034 0.063,0.052 0.114,0.052Z" style="fill-rule:nonzero;"/></g><g transform="matrix(145.833,0,0,145.833,181.751,159.828)"></g><path d="M17.183,0l0,433.333" style="fill:none;fill-rule:nonzero;stroke:#ffe886;stroke-width:20.83px;"/></svg>