<?xml version="1.0" encoding="UTF-8" standalone="no"?><!DOCTYPE svg PUBLIC "-//W3C//DTD SVG 1.1//EN" "http://www.w3.org/Graphics/SVG/1.1/DTD/svg11.dtd"><svg width="100%" height="100%" viewBox="0 0 334 434" version="1.1" xmlns="http://www.w3.org/2000/svg" xmlns:xlink="http://www.w3.org/1999/xlink" xml:space="preserve" xmlns:serif="http://www.serif.com/" style="fill-rule:evenodd;clip-rule:evenodd;"><path d="M16.988,0l82.193,4.364l226.731,84.821c-0,0 -39.457,11.142 -67.799,34.895c-28.343,23.747 -63.691,47.5 -87.606,60.099c-23.913,12.599 -116.232,38.772 -129.272,42.648c-13.04,3.883 -31.362,3.883 -31.362,3.883c-0,-0 -3.743,-82.883 -2.51,-122.142c1.234,-39.259 9.625,-108.568 9.625,-108.568Z" style="fill:#ffe886;"/><g transform="matrix(145.833,0,0,145.833,47.5633,159.828)"><path d="M0.292,0.01c-0.053,0 -0.097,-0.009 -0.134,-0.027c-0.036,-0.019 -0.063,-0.043 -0.082,-0.072c-0.02,-0.03 -0.03,-0.061 -0.031,-0.093c-0.001,-0.006 0.001,-0.011 0.005,-0.014c0.004,-0.004 0.009,-0.006 0.015,-0.006l0.054,0.001c0.006,-0.001 0.011,0.001 0.016,0.004c0.005,0.003 0.008,0.009 0.011,0.017c0.007,0.025 0.018,0.045 0.033,0.061c0.014,0.015 0.032,0.027 0.051,0.034c0.02,0.007 0.041,0.01 0.062,0.01c0.029,0 0.055,-0.006 0.079,-0.018c0.023,-0.011 0.042,-0.029 0.056,-0.051c0.014,-0.023 0.021,-0.051 0.021,-0.084c0,-0.03 -0.007,-0.056 -0.021,-0.077c-0.013,-0.022 -0.032,-0.038 -0.056,-0.05c-0.023,-0.012 -0.05,-0.018 -0.079,-0.018c-0.022,0 -0.04,0.003 -0.054,0.008c-0.014,0.006 -0.026,0.012 -0.036,0.019c-0.009,0.007 -0.018,0.013 -0.025,0.019c-0.008,0.005 -0.017,0.008 -0.026,0.008l-0.052,-0c-0.006,-0 -0.011,-0.003 -0.016,-0.007c-0.004,-0.004 -0.006,-0.009 -0.006,-0.015l0.032,-0.334c0.001,-0.008 0.003,-0.014 0.008,-0.019c0.004,-0.004 0.01,-0.006 0.017,-0.006l0.349,0c0.007,0 0.012,0.002 0.016,0.006c0.005,0.005 0.007,0.01 0.007,0.017l-0,0.039c-0,0.007 -0.002,0.013 -0.007,0.017c-0.004,0.004 -0.009,0.006 -0.016,0.006l-0.288,0l-0.019,0.197c0.01,-0.006 0.025,-0.013 0.045,-0.021c0.02,-0.009 0.049,-0.013 0.085,-0.013c0.033,0 0.064,0.005 0.093,0.015c0.029,0.01 0.055,0.025 0.077,0.044c0.023,0.019 0.04,0.043 0.053,0.071c0.013,0.027 0.019,0.059 0.019,0.095c-0,0.051 -0.011,0.094 -0.033,0.129c-0.022,0.035 -0.053,0.062 -0.091,0.081c-0.038,0.018 -0.082,0.027 -0.132,0.027Z" style="fill-rule:nonzero;"/></g><g transform="matrix(145.833,0,0,145.833,134.188,159.828)"></g><path d="M17.183,0l0,433.333" style="fill:none;fill-rule:nonzero;stroke:#ffe886;stroke-width:20.83px;"/></svg>