<?xml version="1.0" encoding="UTF-8" standalone="no"?><!DOCTYPE svg PUBLIC "-//W3C//DTD SVG 1.1//EN" "http://www.w3.org/Graphics/SVG/1.1/DTD/svg11.dtd"><svg width="100%" height="100%" viewBox="0 0 334 434" version="1.1" xmlns="http://www.w3.org/2000/svg" xmlns:xlink="http://www.w3.org/1999/xlink" xml:space="preserve" xmlns:serif="http://www.serif.com/" style="fill-rule:evenodd;clip-rule:evenodd;"><path d="M16.988,0l82.193,4.364l226.731,84.821c-0,0 -39.457,11.142 -67.799,34.895c-28.343,23.747 -63.691,47.5 -87.606,60.099c-23.913,12.599 -116.232,38.772 -129.272,42.648c-13.04,3.883 -31.362,3.883 -31.362,3.883c-0,-0 -3.743,-82.883 -2.51,-122.142c1.234,-39.259 9.625,-108.568 9.625,-108.568Z" style="fill:#ffe886;"/><g transform="matrix(145.833,0,0,145.833,47.5633,159.828)"><path d="M0.072,-0c-0.007,-0 -0.013,-0.002 -0.017,-0.006c-0.004,-0.005 -0.006,-0.01 -0.006,-0.017l-0,-0.032c-0,-0.006 0.001,-0.013 0.005,-0.02c0.003,-0.007 0.01,-0.015 0.02,-0.024l0.212,-0.212c0.034,-0.028 0.061,-0.053 0.08,-0.073c0.02,-0.021 0.034,-0.041 0.043,-0.059c0.008,-0.019 0.012,-0.038 0.012,-0.058c0,-0.038 -0.01,-0.069 -0.032,-0.091c-0.021,-0.022 -0.053,-0.033 -0.095,-0.033c-0.027,-0 -0.05,0.005 -0.069,0.016c-0.019,0.011 -0.034,0.026 -0.045,0.045c-0.011,0.02 -0.018,0.041 -0.022,0.065c-0.001,0.009 -0.005,0.015 -0.01,0.018c-0.006,0.004 -0.011,0.005 -0.016,0.005l-0.052,0c-0.006,0 -0.011,-0.001 -0.015,-0.005c-0.004,-0.004 -0.006,-0.009 -0.006,-0.014c0.001,-0.026 0.006,-0.051 0.016,-0.077c0.01,-0.025 0.025,-0.048 0.044,-0.069c0.02,-0.021 0.044,-0.038 0.073,-0.051c0.029,-0.012 0.063,-0.019 0.102,-0.019c0.053,0 0.096,0.01 0.129,0.029c0.034,0.019 0.059,0.044 0.075,0.075c0.016,0.031 0.024,0.066 0.024,0.103c-0,0.029 -0.005,0.056 -0.015,0.081c-0.01,0.024 -0.025,0.048 -0.044,0.071c-0.019,0.023 -0.042,0.046 -0.07,0.07l-0.192,0.195l0.312,-0c0.007,-0 0.013,0.002 0.017,0.006c0.004,0.004 0.007,0.01 0.007,0.017l-0,0.041c-0,0.007 -0.003,0.012 -0.007,0.017c-0.004,0.004 -0.01,0.006 -0.017,0.006l-0.441,0Z" style="fill-rule:nonzero;"/></g><g transform="matrix(145.833,0,0,145.833,133.167,159.828)"></g><g transform="matrix(145.833,0,0,145.833,168.897,159.828)"></g><path d="M17.183,0l0,433.333" style="fill:none;fill-rule:nonzero;stroke:#ffe886;stroke-width:20.83px;"/></svg>