<?xml version="1.0" encoding="UTF-8" standalone="no"?><!DOCTYPE svg PUBLIC "-//W3C//DTD SVG 1.1//EN" "http://www.w3.org/Graphics/SVG/1.1/DTD/svg11.dtd"><svg width="100%" height="100%" viewBox="0 0 334 434" version="1.1" xmlns="http://www.w3.org/2000/svg" xmlns:xlink="http://www.w3.org/1999/xlink" xml:space="preserve" xmlns:serif="http://www.serif.com/" style="fill-rule:evenodd;clip-rule:evenodd;"><path d="M16.988,0l82.193,4.364l226.731,84.821c-0,0 -39.457,11.142 -67.799,34.895c-28.343,23.747 -63.691,47.5 -87.606,60.099c-23.913,12.599 -116.232,38.772 -129.272,42.648c-13.04,3.883 -31.362,3.883 -31.362,3.883c-0,-0 -3.743,-82.883 -2.51,-122.142c1.234,-39.259 9.625,-108.568 9.625,-108.568Z" style="fill:#ffe886;"/><g transform="matrix(145.833,0,0,145.833,47.5633,159.828)"><path d="M0.298,0.01c-0.042,0 -0.079,-0.005 -0.11,-0.016c-0.032,-0.01 -0.058,-0.024 -0.079,-0.041c-0.022,-0.017 -0.038,-0.036 -0.049,-0.057c-0.011,-0.021 -0.017,-0.042 -0.017,-0.064c-0,-0.006 0.002,-0.011 0.006,-0.014c0.004,-0.004 0.009,-0.005 0.015,-0.005l0.049,-0c0.006,-0 0.011,0.001 0.016,0.004c0.005,0.002 0.009,0.008 0.012,0.017c0.007,0.024 0.018,0.043 0.035,0.056c0.016,0.013 0.035,0.023 0.057,0.028c0.021,0.004 0.043,0.007 0.065,0.007c0.046,-0 0.083,-0.011 0.112,-0.033c0.029,-0.022 0.043,-0.054 0.043,-0.097c0,-0.043 -0.013,-0.074 -0.039,-0.093c-0.026,-0.018 -0.062,-0.028 -0.108,-0.028l-0.095,0c-0.007,0 -0.012,-0.002 -0.017,-0.006c-0.004,-0.004 -0.006,-0.01 -0.006,-0.017l0,-0.027c0,-0.006 0.001,-0.011 0.003,-0.016c0.002,-0.004 0.005,-0.008 0.008,-0.011l0.194,-0.212l-0.295,0c-0.007,0 -0.012,-0.002 -0.017,-0.006c-0.004,-0.004 -0.006,-0.01 -0.006,-0.017l-0,-0.038c-0,-0.008 0.002,-0.013 0.006,-0.018c0.005,-0.004 0.01,-0.006 0.017,-0.006l0.399,0c0.007,0 0.013,0.002 0.017,0.006c0.005,0.005 0.007,0.01 0.007,0.018l-0,0.036c-0,0.005 -0.001,0.009 -0.003,0.013c-0.003,0.004 -0.005,0.007 -0.008,0.01l-0.193,0.215l0.016,0.001c0.044,0.001 0.082,0.009 0.115,0.024c0.033,0.014 0.059,0.036 0.077,0.065c0.019,0.029 0.028,0.066 0.028,0.11c0,0.044 -0.011,0.082 -0.033,0.114c-0.022,0.032 -0.052,0.056 -0.091,0.073c-0.038,0.017 -0.082,0.025 -0.131,0.025Z" style="fill-rule:nonzero;"/></g><g transform="matrix(145.833,0,0,145.833,135.209,159.828)"></g><g transform="matrix(145.833,0,0,145.833,170.938,159.828)"></g><path d="M17.183,0l0,433.333" style="fill:none;fill-rule:nonzero;stroke:#ffe886;stroke-width:20.83px;"/></svg>