<?xml version="1.0" encoding="UTF-8" standalone="no"?><!DOCTYPE svg PUBLIC "-//W3C//DTD SVG 1.1//EN" "http://www.w3.org/Graphics/SVG/1.1/DTD/svg11.dtd"><svg width="100%" height="100%" viewBox="0 0 334 434" version="1.1" xmlns="http://www.w3.org/2000/svg" xmlns:xlink="http://www.w3.org/1999/xlink" xml:space="preserve" xmlns:serif="http://www.serif.com/" style="fill-rule:evenodd;clip-rule:evenodd;"><path d="M16.988,0l82.193,4.364l226.731,84.821c-0,0 -39.457,11.142 -67.799,34.895c-28.343,23.747 -63.691,47.5 -87.606,60.099c-23.913,12.599 -116.232,38.772 -129.272,42.648c-13.04,3.883 -31.362,3.883 -31.362,3.883c-0,-0 -3.743,-82.883 -2.51,-122.142c1.234,-39.259 9.625,-108.568 9.625,-108.568Z" style="fill:#ffe886;"/><g transform="matrix(145.833,0,0,145.833,47.5633,159.828)"><path d="M0.318,0.01c-0.039,0 -0.074,-0.005 -0.107,-0.015c-0.032,-0.009 -0.06,-0.023 -0.083,-0.042c-0.023,-0.018 -0.041,-0.04 -0.053,-0.066c-0.013,-0.026 -0.02,-0.055 -0.02,-0.088c0,-0.041 0.01,-0.076 0.03,-0.105c0.02,-0.029 0.046,-0.051 0.079,-0.067c-0.026,-0.016 -0.046,-0.036 -0.061,-0.06c-0.015,-0.025 -0.023,-0.054 -0.023,-0.088c0,-0.04 0.01,-0.074 0.03,-0.102c0.02,-0.027 0.048,-0.049 0.083,-0.064c0.036,-0.015 0.077,-0.023 0.125,-0.023c0.047,0 0.088,0.008 0.124,0.023c0.035,0.015 0.063,0.036 0.083,0.064c0.019,0.028 0.029,0.062 0.029,0.102c0,0.033 -0.007,0.063 -0.022,0.087c-0.015,0.025 -0.035,0.045 -0.06,0.061c0.032,0.015 0.059,0.038 0.078,0.067c0.02,0.029 0.03,0.065 0.03,0.105c0,0.044 -0.011,0.081 -0.033,0.113c-0.022,0.031 -0.053,0.055 -0.092,0.072c-0.04,0.017 -0.085,0.026 -0.137,0.026Zm-0,-0.08c0.03,-0 0.058,-0.006 0.083,-0.016c0.024,-0.011 0.044,-0.026 0.059,-0.045c0.015,-0.02 0.022,-0.043 0.022,-0.07c-0,-0.027 -0.007,-0.05 -0.022,-0.07c-0.015,-0.019 -0.035,-0.034 -0.059,-0.044c-0.025,-0.01 -0.053,-0.015 -0.083,-0.015c-0.031,-0 -0.058,0.005 -0.083,0.015c-0.025,0.01 -0.045,0.025 -0.06,0.044c-0.014,0.02 -0.022,0.043 -0.022,0.07c0,0.027 0.008,0.05 0.022,0.07c0.015,0.019 0.035,0.034 0.06,0.045c0.025,0.01 0.052,0.016 0.083,0.016Zm-0,-0.339c0.025,-0 0.049,-0.005 0.071,-0.014c0.021,-0.009 0.039,-0.022 0.052,-0.038c0.013,-0.016 0.019,-0.035 0.019,-0.058c0,-0.023 -0.006,-0.042 -0.018,-0.059c-0.013,-0.016 -0.03,-0.029 -0.052,-0.038c-0.021,-0.009 -0.046,-0.014 -0.072,-0.014c-0.027,0 -0.051,0.005 -0.073,0.014c-0.021,0.009 -0.039,0.022 -0.051,0.038c-0.013,0.017 -0.019,0.036 -0.019,0.059c-0,0.023 0.006,0.043 0.019,0.059c0.012,0.017 0.03,0.029 0.051,0.038c0.022,0.009 0.046,0.013 0.073,0.013Z" style="fill-rule:nonzero;"/></g><g transform="matrix(145.833,0,0,145.833,140.313,159.828)"></g><path d="M17.183,0l0,433.333" style="fill:none;fill-rule:nonzero;stroke:#ffe886;stroke-width:20.83px;"/></svg>