<?xml version="1.0" encoding="UTF-8" standalone="no"?><!DOCTYPE svg PUBLIC "-//W3C//DTD SVG 1.1//EN" "http://www.w3.org/Graphics/SVG/1.1/DTD/svg11.dtd"><svg width="100%" height="100%" viewBox="0 0 334 434" version="1.1" xmlns="http://www.w3.org/2000/svg" xmlns:xlink="http://www.w3.org/1999/xlink" xml:space="preserve" xmlns:serif="http://www.serif.com/" style="fill-rule:evenodd;clip-rule:evenodd;"><path d="M16.988,0l82.193,4.364l226.731,84.821c-0,0 -39.457,11.142 -67.799,34.895c-28.343,23.747 -63.691,47.5 -87.606,60.099c-23.913,12.599 -116.232,38.772 -129.272,42.648c-13.04,3.883 -31.362,3.883 -31.362,3.883c-0,-0 -3.743,-82.883 -2.51,-122.142c1.234,-39.259 9.625,-108.568 9.625,-108.568Z" style="fill:#ffe886;"/><g transform="matrix(145.833,0,0,145.833,47.5633,159.828)"><path d="M0.308,0.01c-0.055,0 -0.102,-0.011 -0.141,-0.033c-0.038,-0.023 -0.068,-0.052 -0.088,-0.088c-0.02,-0.037 -0.031,-0.077 -0.031,-0.119c0,-0.02 0.003,-0.039 0.008,-0.058c0.005,-0.018 0.011,-0.035 0.018,-0.052c0.008,-0.016 0.015,-0.03 0.023,-0.043c0.008,-0.013 0.015,-0.024 0.021,-0.032l0.19,-0.265c0.004,-0.003 0.008,-0.008 0.012,-0.013c0.005,-0.005 0.012,-0.007 0.021,-0.007l0.053,-0c0.006,-0 0.011,0.002 0.015,0.006c0.004,0.005 0.005,0.01 0.005,0.016c0,0.003 -0,0.005 -0.001,0.007c-0.001,0.003 -0.002,0.005 -0.003,0.006l-0.146,0.204c0.008,-0.003 0.017,-0.004 0.028,-0.005c0.01,-0.001 0.02,-0.002 0.029,-0.002c0.037,0 0.07,0.007 0.1,0.02c0.03,0.012 0.056,0.029 0.078,0.051c0.021,0.022 0.038,0.047 0.049,0.075c0.012,0.029 0.017,0.059 0.017,0.091c0,0.042 -0.01,0.081 -0.03,0.118c-0.02,0.036 -0.049,0.066 -0.087,0.089c-0.038,0.023 -0.085,0.034 -0.14,0.034Zm-0.001,-0.085c0.028,-0 0.054,-0.006 0.078,-0.018c0.024,-0.012 0.044,-0.029 0.059,-0.052c0.015,-0.024 0.022,-0.052 0.022,-0.086c0,-0.033 -0.007,-0.061 -0.022,-0.084c-0.015,-0.023 -0.035,-0.04 -0.059,-0.052c-0.024,-0.012 -0.05,-0.018 -0.078,-0.018c-0.028,0 -0.054,0.006 -0.078,0.018c-0.024,0.012 -0.044,0.029 -0.059,0.052c-0.015,0.023 -0.022,0.051 -0.022,0.084c0,0.034 0.008,0.062 0.023,0.086c0.015,0.023 0.034,0.04 0.058,0.052c0.024,0.012 0.05,0.018 0.078,0.018Z" style="fill-rule:nonzero;"/></g><g transform="matrix(145.833,0,0,145.833,135.501,159.828)"></g><path d="M17.183,0l0,433.333" style="fill:none;fill-rule:nonzero;stroke:#ffe886;stroke-width:20.83px;"/></svg>