<?xml version="1.0" encoding="UTF-8" standalone="no"?><!DOCTYPE svg PUBLIC "-//W3C//DTD SVG 1.1//EN" "http://www.w3.org/Graphics/SVG/1.1/DTD/svg11.dtd"><svg width="100%" height="100%" viewBox="0 0 334 434" version="1.1" xmlns="http://www.w3.org/2000/svg" xmlns:xlink="http://www.w3.org/1999/xlink" xml:space="preserve" xmlns:serif="http://www.serif.com/" style="fill-rule:evenodd;clip-rule:evenodd;"><path d="M16.988,0l82.193,4.364l226.731,84.821c-0,0 -39.457,11.142 -67.799,34.895c-28.343,23.747 -63.691,47.5 -87.606,60.099c-23.913,12.599 -116.232,38.772 -129.272,42.648c-13.04,3.883 -31.362,3.883 -31.362,3.883c-0,-0 -3.743,-82.883 -2.51,-122.142c1.234,-39.259 9.625,-108.568 9.625,-108.568Z" style="fill:#ffe886;"/><g transform="matrix(145.833,0,0,145.833,47.5633,159.828)"><path d="M0.401,-0c-0.007,-0 -0.012,-0.002 -0.017,-0.006c-0.004,-0.005 -0.006,-0.01 -0.006,-0.017l0,-0.144l-0.324,-0c-0.007,-0 -0.012,-0.002 -0.017,-0.007c-0.004,-0.004 -0.006,-0.009 -0.006,-0.016l-0,-0.04c-0,-0.003 0.001,-0.007 0.002,-0.013c0.002,-0.005 0.005,-0.011 0.009,-0.017l0.3,-0.423c0.008,-0.011 0.021,-0.017 0.037,-0.017l0.072,0c0.007,0 0.013,0.002 0.017,0.006c0.004,0.005 0.006,0.01 0.006,0.017l0,0.423l0.09,-0c0.007,-0 0.013,0.002 0.017,0.006c0.004,0.005 0.007,0.01 0.007,0.017l-0,0.041c-0,0.007 -0.003,0.012 -0.007,0.016c-0.004,0.005 -0.01,0.007 -0.016,0.007l-0.091,-0l0,0.144c0,0.007 -0.002,0.012 -0.006,0.017c-0.004,0.004 -0.01,0.006 -0.017,0.006l-0.05,0Zm-0.263,-0.252l0.241,0l0,-0.343l-0.241,0.343Z" style="fill-rule:nonzero;"/></g><g transform="matrix(145.833,0,0,145.833,138.126,159.828)"></g><path d="M17.183,0l0,433.333" style="fill:none;fill-rule:nonzero;stroke:#ffe886;stroke-width:20.83px;"/></svg>